<mxfile host="app.diagrams.net" agent="Mozilla/5.0 (Macintosh; Intel Mac OS X 10_15_7) AppleWebKit/537.36 (KHTML, like Gecko) Chrome/141.0.0.0 Safari/537.36" version="28.2.8">
  <diagram name="Page-1" id="kGHOd0VXwJkK710yixL8">
    <mxGraphModel dx="2492" dy="1959" grid="1" gridSize="10" guides="1" tooltips="1" connect="1" arrows="1" fold="1" page="1" pageScale="1" pageWidth="827" pageHeight="1169" math="0" shadow="0">
      <root>
        <mxCell id="0" />
        <mxCell id="1" parent="0" />
        <mxCell id="RL6P47m6kGYZwMr3_Tkv-92" value="AWS Cloud" style="points=[[0,0],[0.25,0],[0.5,0],[0.75,0],[1,0],[1,0.25],[1,0.5],[1,0.75],[1,1],[0.75,1],[0.5,1],[0.25,1],[0,1],[0,0.75],[0,0.5],[0,0.25]];outlineConnect=0;gradientColor=none;html=1;whiteSpace=wrap;fontSize=12;fontStyle=0;shape=mxgraph.aws4.group;grIcon=mxgraph.aws4.group_aws_cloud_alt;strokeColor=#232F3E;fillColor=none;verticalAlign=top;align=left;spacingLeft=30;fontColor=#232F3E;dashed=0;labelBackgroundColor=#ffffff;container=1;pointerEvents=0;collapsible=0;recursiveResize=0;" vertex="1" parent="1">
          <mxGeometry x="-570" y="140" width="1300" height="920" as="geometry" />
        </mxCell>
        <mxCell id="RL6P47m6kGYZwMr3_Tkv-93" value="Availability Zone 1" style="fillColor=none;strokeColor=#147EBA;dashed=1;verticalAlign=top;fontStyle=0;fontColor=#147EBA;whiteSpace=wrap;html=1;" vertex="1" parent="RL6P47m6kGYZwMr3_Tkv-92">
          <mxGeometry x="794" y="156" width="250" height="659" as="geometry" />
        </mxCell>
        <mxCell id="RL6P47m6kGYZwMr3_Tkv-94" value="Availability Zone 1" style="fillColor=none;strokeColor=#147EBA;dashed=1;verticalAlign=top;fontStyle=0;fontColor=#147EBA;whiteSpace=wrap;html=1;" vertex="1" parent="RL6P47m6kGYZwMr3_Tkv-92">
          <mxGeometry x="185" y="171" width="250" height="659" as="geometry" />
        </mxCell>
        <mxCell id="RL6P47m6kGYZwMr3_Tkv-95" value="VPC" style="sketch=0;outlineConnect=0;gradientColor=none;html=1;whiteSpace=wrap;fontSize=12;fontStyle=0;shape=mxgraph.aws4.group;grIcon=mxgraph.aws4.group_vpc;strokeColor=#009900;fillColor=none;verticalAlign=top;align=left;spacingLeft=30;fontColor=#009900;dashed=0;" vertex="1" parent="RL6P47m6kGYZwMr3_Tkv-92">
          <mxGeometry x="88" y="103" width="1060" height="737" as="geometry" />
        </mxCell>
        <mxCell id="RL6P47m6kGYZwMr3_Tkv-96" value="Private subnet-backend02&lt;div&gt;&lt;br&gt;&lt;/div&gt;" style="points=[[0,0],[0.25,0],[0.5,0],[0.75,0],[1,0],[1,0.25],[1,0.5],[1,0.75],[1,1],[0.75,1],[0.5,1],[0.25,1],[0,1],[0,0.75],[0,0.5],[0,0.25]];outlineConnect=0;gradientColor=none;html=1;whiteSpace=wrap;fontSize=12;fontStyle=0;container=1;pointerEvents=0;collapsible=0;recursiveResize=0;shape=mxgraph.aws4.group;grIcon=mxgraph.aws4.group_security_group;grStroke=0;strokeColor=#00A4A6;fillColor=#E6F6F7;verticalAlign=top;align=left;spacingLeft=30;fontColor=#147EBA;dashed=0;" vertex="1" parent="RL6P47m6kGYZwMr3_Tkv-92">
          <mxGeometry x="809" y="600" width="220" height="200" as="geometry" />
        </mxCell>
        <mxCell id="RL6P47m6kGYZwMr3_Tkv-97" value="Standby DB instance&lt;div&gt;&lt;br&gt;&lt;/div&gt;" style="outlineConnect=0;dashed=0;verticalLabelPosition=bottom;verticalAlign=top;align=center;html=1;shape=mxgraph.aws3.rds_db_instance_standby_multi_az;fillColor=#2E73B8;gradientColor=none;" vertex="1" parent="RL6P47m6kGYZwMr3_Tkv-96">
          <mxGeometry x="65" y="50" width="60" height="80" as="geometry" />
        </mxCell>
        <mxCell id="RL6P47m6kGYZwMr3_Tkv-98" value="Private subnet-backend01" style="points=[[0,0],[0.25,0],[0.5,0],[0.75,0],[1,0],[1,0.25],[1,0.5],[1,0.75],[1,1],[0.75,1],[0.5,1],[0.25,1],[0,1],[0,0.75],[0,0.5],[0,0.25]];outlineConnect=0;gradientColor=none;html=1;whiteSpace=wrap;fontSize=12;fontStyle=0;container=1;pointerEvents=0;collapsible=0;recursiveResize=0;shape=mxgraph.aws4.group;grIcon=mxgraph.aws4.group_security_group;grStroke=0;strokeColor=#00A4A6;fillColor=#E6F6F7;verticalAlign=top;align=left;spacingLeft=30;fontColor=#147EBA;dashed=0;" vertex="1" parent="RL6P47m6kGYZwMr3_Tkv-92">
          <mxGeometry x="200" y="600" width="220" height="200" as="geometry" />
        </mxCell>
        <mxCell id="RL6P47m6kGYZwMr3_Tkv-99" value="Primary DB instance" style="outlineConnect=0;dashed=0;verticalLabelPosition=bottom;verticalAlign=top;align=center;html=1;shape=mxgraph.aws3.rds_db_instance;fillColor=#2E73B8;gradientColor=none;" vertex="1" parent="RL6P47m6kGYZwMr3_Tkv-98">
          <mxGeometry x="49.5" y="50" width="65" height="82.5" as="geometry" />
        </mxCell>
        <mxCell id="RL6P47m6kGYZwMr3_Tkv-100" value="Private subnet- frontend01" style="points=[[0,0],[0.25,0],[0.5,0],[0.75,0],[1,0],[1,0.25],[1,0.5],[1,0.75],[1,1],[0.75,1],[0.5,1],[0.25,1],[0,1],[0,0.75],[0,0.5],[0,0.25]];outlineConnect=0;gradientColor=none;html=1;whiteSpace=wrap;fontSize=12;fontStyle=0;container=1;pointerEvents=0;collapsible=0;recursiveResize=0;shape=mxgraph.aws4.group;grIcon=mxgraph.aws4.group_security_group;grStroke=0;strokeColor=#00A4A6;fillColor=#E6F6F7;verticalAlign=top;align=left;spacingLeft=30;fontColor=#147EBA;dashed=0;" vertex="1" parent="RL6P47m6kGYZwMr3_Tkv-92">
          <mxGeometry x="201" y="366" width="219" height="204" as="geometry" />
        </mxCell>
        <mxCell id="RL6P47m6kGYZwMr3_Tkv-101" value="Application Load Balancer&lt;br&gt;用路径区别访问流程&lt;br&gt;https://ALB-DNS-- Prod&lt;br&gt;https://ALB-DNS/test-- Test&lt;div&gt;&lt;br&gt;&lt;div&gt;&lt;br&gt;&lt;/div&gt;&lt;/div&gt;" style="sketch=0;outlineConnect=0;fontColor=#232F3E;gradientColor=none;fillColor=#8C4FFF;strokeColor=none;dashed=0;verticalLabelPosition=bottom;verticalAlign=top;align=center;html=1;fontSize=12;fontStyle=0;aspect=fixed;pointerEvents=1;shape=mxgraph.aws4.application_load_balancer;" vertex="1" parent="RL6P47m6kGYZwMr3_Tkv-92">
          <mxGeometry x="569.75" y="156" width="68" height="68" as="geometry" />
        </mxCell>
        <mxCell id="RL6P47m6kGYZwMr3_Tkv-102" style="edgeStyle=orthogonalEdgeStyle;rounded=0;orthogonalLoop=1;jettySize=auto;html=1;" edge="1" parent="RL6P47m6kGYZwMr3_Tkv-92" source="RL6P47m6kGYZwMr3_Tkv-103" target="RL6P47m6kGYZwMr3_Tkv-101">
          <mxGeometry relative="1" as="geometry" />
        </mxCell>
        <mxCell id="RL6P47m6kGYZwMr3_Tkv-103" value="AWS WAF&lt;br&gt;Web Application Fire Wall" style="sketch=0;points=[[0,0,0],[0.25,0,0],[0.5,0,0],[0.75,0,0],[1,0,0],[0,1,0],[0.25,1,0],[0.5,1,0],[0.75,1,0],[1,1,0],[0,0.25,0],[0,0.5,0],[0,0.75,0],[1,0.25,0],[1,0.5,0],[1,0.75,0]];outlineConnect=0;fontColor=#232F3E;fillColor=#DD344C;strokeColor=#ffffff;dashed=0;verticalLabelPosition=bottom;verticalAlign=top;align=center;html=1;fontSize=12;fontStyle=0;aspect=fixed;shape=mxgraph.aws4.resourceIcon;resIcon=mxgraph.aws4.waf;" vertex="1" parent="RL6P47m6kGYZwMr3_Tkv-92">
          <mxGeometry x="568.25" y="12.5" width="71" height="71" as="geometry" />
        </mxCell>
        <mxCell id="RL6P47m6kGYZwMr3_Tkv-104" value="Public subnet -pub01&lt;div&gt;&lt;br&gt;&lt;/div&gt;" style="points=[[0,0],[0.25,0],[0.5,0],[0.75,0],[1,0],[1,0.25],[1,0.5],[1,0.75],[1,1],[0.75,1],[0.5,1],[0.25,1],[0,1],[0,0.75],[0,0.5],[0,0.25]];outlineConnect=0;gradientColor=none;html=1;whiteSpace=wrap;fontSize=12;fontStyle=0;container=1;pointerEvents=0;collapsible=0;recursiveResize=0;shape=mxgraph.aws4.group;grIcon=mxgraph.aws4.group_security_group;grStroke=0;strokeColor=#7AA116;fillColor=#F2F6E8;verticalAlign=top;align=left;spacingLeft=30;fontColor=#248814;dashed=0;" vertex="1" parent="RL6P47m6kGYZwMr3_Tkv-92">
          <mxGeometry x="200" y="211.5" width="220" height="158.5" as="geometry" />
        </mxCell>
        <mxCell id="RL6P47m6kGYZwMr3_Tkv-105" value="NAT Gateway&lt;div&gt;&lt;br&gt;&lt;/div&gt;" style="sketch=0;outlineConnect=0;fontColor=#232F3E;gradientColor=none;fillColor=#8C4FFF;strokeColor=none;dashed=0;verticalLabelPosition=bottom;verticalAlign=top;align=center;html=1;fontSize=12;fontStyle=0;aspect=fixed;pointerEvents=1;shape=mxgraph.aws4.nat_gateway;" vertex="1" parent="RL6P47m6kGYZwMr3_Tkv-104">
          <mxGeometry x="70.5" y="40" width="78" height="78" as="geometry" />
        </mxCell>
        <mxCell id="RL6P47m6kGYZwMr3_Tkv-106" value="Production EC2&lt;div&gt;&lt;br&gt;&lt;/div&gt;" style="sketch=0;points=[[0,0,0],[0.25,0,0],[0.5,0,0],[0.75,0,0],[1,0,0],[0,1,0],[0.25,1,0],[0.5,1,0],[0.75,1,0],[1,1,0],[0,0.25,0],[0,0.5,0],[0,0.75,0],[1,0.25,0],[1,0.5,0],[1,0.75,0]];outlineConnect=0;fontColor=#232F3E;fillColor=#ED7100;strokeColor=#ffffff;dashed=0;verticalLabelPosition=bottom;verticalAlign=top;align=center;html=1;fontSize=12;fontStyle=0;aspect=fixed;shape=mxgraph.aws4.resourceIcon;resIcon=mxgraph.aws4.ec2;" vertex="1" parent="RL6P47m6kGYZwMr3_Tkv-92">
          <mxGeometry x="243" y="410" width="78" height="78" as="geometry" />
        </mxCell>
        <mxCell id="RL6P47m6kGYZwMr3_Tkv-107" style="edgeStyle=orthogonalEdgeStyle;rounded=0;orthogonalLoop=1;jettySize=auto;html=1;entryX=0;entryY=0.5;entryDx=0;entryDy=0;entryPerimeter=0;" edge="1" parent="RL6P47m6kGYZwMr3_Tkv-92" source="RL6P47m6kGYZwMr3_Tkv-99" target="RL6P47m6kGYZwMr3_Tkv-97">
          <mxGeometry relative="1" as="geometry" />
        </mxCell>
        <mxCell id="RL6P47m6kGYZwMr3_Tkv-108" value="DataSync" style="edgeLabel;html=1;align=center;verticalAlign=middle;resizable=0;points=[];" vertex="1" connectable="0" parent="RL6P47m6kGYZwMr3_Tkv-107">
          <mxGeometry x="0.105" y="-4" relative="1" as="geometry">
            <mxPoint as="offset" />
          </mxGeometry>
        </mxCell>
        <mxCell id="RL6P47m6kGYZwMr3_Tkv-109" value="Public subnet -pub01&lt;div&gt;&lt;br&gt;&lt;/div&gt;" style="points=[[0,0],[0.25,0],[0.5,0],[0.75,0],[1,0],[1,0.25],[1,0.5],[1,0.75],[1,1],[0.75,1],[0.5,1],[0.25,1],[0,1],[0,0.75],[0,0.5],[0,0.25]];outlineConnect=0;gradientColor=none;html=1;whiteSpace=wrap;fontSize=12;fontStyle=0;container=1;pointerEvents=0;collapsible=0;recursiveResize=0;shape=mxgraph.aws4.group;grIcon=mxgraph.aws4.group_security_group;grStroke=0;strokeColor=#7AA116;fillColor=#F2F6E8;verticalAlign=top;align=left;spacingLeft=30;fontColor=#248814;dashed=0;" vertex="1" parent="RL6P47m6kGYZwMr3_Tkv-92">
          <mxGeometry x="809" y="211.5" width="220" height="158.5" as="geometry" />
        </mxCell>
        <mxCell id="RL6P47m6kGYZwMr3_Tkv-110" value="NAT Gateway&lt;div&gt;&lt;br&gt;&lt;/div&gt;" style="sketch=0;outlineConnect=0;fontColor=#232F3E;gradientColor=none;fillColor=#8C4FFF;strokeColor=none;dashed=0;verticalLabelPosition=bottom;verticalAlign=top;align=center;html=1;fontSize=12;fontStyle=0;aspect=fixed;pointerEvents=1;shape=mxgraph.aws4.nat_gateway;" vertex="1" parent="RL6P47m6kGYZwMr3_Tkv-109">
          <mxGeometry x="70.5" y="40" width="78" height="78" as="geometry" />
        </mxCell>
        <mxCell id="RL6P47m6kGYZwMr3_Tkv-111" value="Private subnet- frontend01" style="points=[[0,0],[0.25,0],[0.5,0],[0.75,0],[1,0],[1,0.25],[1,0.5],[1,0.75],[1,1],[0.75,1],[0.5,1],[0.25,1],[0,1],[0,0.75],[0,0.5],[0,0.25]];outlineConnect=0;gradientColor=none;html=1;whiteSpace=wrap;fontSize=12;fontStyle=0;container=1;pointerEvents=0;collapsible=0;recursiveResize=0;shape=mxgraph.aws4.group;grIcon=mxgraph.aws4.group_security_group;grStroke=0;strokeColor=#00A4A6;fillColor=#E6F6F7;verticalAlign=top;align=left;spacingLeft=30;fontColor=#147EBA;dashed=0;" vertex="1" parent="RL6P47m6kGYZwMr3_Tkv-92">
          <mxGeometry x="809" y="370" width="219" height="204" as="geometry" />
        </mxCell>
        <mxCell id="RL6P47m6kGYZwMr3_Tkv-112" value="Auto Scaling group" style="points=[[0,0],[0.25,0],[0.5,0],[0.75,0],[1,0],[1,0.25],[1,0.5],[1,0.75],[1,1],[0.75,1],[0.5,1],[0.25,1],[0,1],[0,0.75],[0,0.5],[0,0.25]];outlineConnect=0;gradientColor=none;html=1;whiteSpace=wrap;fontSize=12;fontStyle=0;container=1;pointerEvents=0;collapsible=0;recursiveResize=0;shape=mxgraph.aws4.groupCenter;grIcon=mxgraph.aws4.group_auto_scaling_group;grStroke=1;strokeColor=#D86613;fillColor=none;verticalAlign=top;align=center;fontColor=#D86613;dashed=1;spacingTop=25;" vertex="1" parent="RL6P47m6kGYZwMr3_Tkv-92">
          <mxGeometry x="213" y="393" width="810" height="150" as="geometry" />
        </mxCell>
        <mxCell id="RL6P47m6kGYZwMr3_Tkv-113" value="for web App" style="text;html=1;align=center;verticalAlign=middle;whiteSpace=wrap;rounded=0;fontColor=light-dark(#df6311, #ededed);" vertex="1" parent="RL6P47m6kGYZwMr3_Tkv-112">
          <mxGeometry x="345" y="40" width="130" height="30" as="geometry" />
        </mxCell>
        <mxCell id="RL6P47m6kGYZwMr3_Tkv-114" value="Test EC2" style="sketch=0;points=[[0,0,0],[0.25,0,0],[0.5,0,0],[0.75,0,0],[1,0,0],[0,1,0],[0.25,1,0],[0.5,1,0],[0.75,1,0],[1,1,0],[0,0.25,0],[0,0.5,0],[0,0.75,0],[1,0.25,0],[1,0.5,0],[1,0.75,0]];outlineConnect=0;fontColor=#232F3E;fillColor=#ED7100;strokeColor=#ffffff;dashed=0;verticalLabelPosition=bottom;verticalAlign=top;align=center;html=1;fontSize=12;fontStyle=0;aspect=fixed;shape=mxgraph.aws4.resourceIcon;resIcon=mxgraph.aws4.ec2;" vertex="1" parent="RL6P47m6kGYZwMr3_Tkv-112">
          <mxGeometry x="661" y="27" width="78" height="78" as="geometry" />
        </mxCell>
        <mxCell id="RL6P47m6kGYZwMr3_Tkv-115" style="edgeStyle=orthogonalEdgeStyle;rounded=0;orthogonalLoop=1;jettySize=auto;html=1;entryX=1;entryY=0.5;entryDx=0;entryDy=0;entryPerimeter=0;" edge="1" parent="RL6P47m6kGYZwMr3_Tkv-92" source="RL6P47m6kGYZwMr3_Tkv-101" target="RL6P47m6kGYZwMr3_Tkv-106">
          <mxGeometry relative="1" as="geometry" />
        </mxCell>
        <mxCell id="RL6P47m6kGYZwMr3_Tkv-116" value="AWS Cloudwatch" style="sketch=0;points=[[0,0,0],[0.25,0,0],[0.5,0,0],[0.75,0,0],[1,0,0],[0,1,0],[0.25,1,0],[0.5,1,0],[0.75,1,0],[1,1,0],[0,0.25,0],[0,0.5,0],[0,0.75,0],[1,0.25,0],[1,0.5,0],[1,0.75,0]];points=[[0,0,0],[0.25,0,0],[0.5,0,0],[0.75,0,0],[1,0,0],[0,1,0],[0.25,1,0],[0.5,1,0],[0.75,1,0],[1,1,0],[0,0.25,0],[0,0.5,0],[0,0.75,0],[1,0.25,0],[1,0.5,0],[1,0.75,0]];outlineConnect=0;fontColor=#232F3E;fillColor=#E7157B;strokeColor=#ffffff;dashed=0;verticalLabelPosition=bottom;verticalAlign=top;align=center;html=1;fontSize=12;fontStyle=0;aspect=fixed;shape=mxgraph.aws4.resourceIcon;resIcon=mxgraph.aws4.cloudwatch_2;" vertex="1" parent="RL6P47m6kGYZwMr3_Tkv-92">
          <mxGeometry x="1180" y="230" width="78" height="78" as="geometry" />
        </mxCell>
        <mxCell id="RL6P47m6kGYZwMr3_Tkv-117" value="AWS Systems Manager" style="sketch=0;points=[[0,0,0],[0.25,0,0],[0.5,0,0],[0.75,0,0],[1,0,0],[0,1,0],[0.25,1,0],[0.5,1,0],[0.75,1,0],[1,1,0],[0,0.25,0],[0,0.5,0],[0,0.75,0],[1,0.25,0],[1,0.5,0],[1,0.75,0]];points=[[0,0,0],[0.25,0,0],[0.5,0,0],[0.75,0,0],[1,0,0],[0,1,0],[0.25,1,0],[0.5,1,0],[0.75,1,0],[1,1,0],[0,0.25,0],[0,0.5,0],[0,0.75,0],[1,0.25,0],[1,0.5,0],[1,0.75,0]];outlineConnect=0;fontColor=#232F3E;fillColor=#E7157B;strokeColor=#ffffff;dashed=0;verticalLabelPosition=bottom;verticalAlign=top;align=center;html=1;fontSize=12;fontStyle=0;aspect=fixed;shape=mxgraph.aws4.resourceIcon;resIcon=mxgraph.aws4.systems_manager;" vertex="1" parent="RL6P47m6kGYZwMr3_Tkv-92">
          <mxGeometry x="1180" y="410" width="78" height="78" as="geometry" />
        </mxCell>
        <mxCell id="RL6P47m6kGYZwMr3_Tkv-118" value="" style="endArrow=classic;startArrow=classic;html=1;rounded=0;exitX=0.5;exitY=0.02;exitDx=0;exitDy=0;exitPerimeter=0;" edge="1" parent="RL6P47m6kGYZwMr3_Tkv-92" source="RL6P47m6kGYZwMr3_Tkv-99" target="RL6P47m6kGYZwMr3_Tkv-106">
          <mxGeometry width="50" height="50" relative="1" as="geometry">
            <mxPoint x="750" y="550" as="sourcePoint" />
            <mxPoint x="800" y="500" as="targetPoint" />
          </mxGeometry>
        </mxCell>
        <mxCell id="RL6P47m6kGYZwMr3_Tkv-119" value="Read/Write&lt;div&gt;&lt;br&gt;&lt;/div&gt;" style="edgeLabel;html=1;align=center;verticalAlign=middle;resizable=0;points=[];" vertex="1" connectable="0" parent="RL6P47m6kGYZwMr3_Tkv-118">
          <mxGeometry x="-0.1877" y="-2" relative="1" as="geometry">
            <mxPoint as="offset" />
          </mxGeometry>
        </mxCell>
        <mxCell id="RL6P47m6kGYZwMr3_Tkv-120" style="edgeStyle=orthogonalEdgeStyle;rounded=0;orthogonalLoop=1;jettySize=auto;html=1;entryX=0;entryY=0.5;entryDx=0;entryDy=0;entryPerimeter=0;" edge="1" parent="RL6P47m6kGYZwMr3_Tkv-92" source="RL6P47m6kGYZwMr3_Tkv-101" target="RL6P47m6kGYZwMr3_Tkv-114">
          <mxGeometry relative="1" as="geometry" />
        </mxCell>
        <mxCell id="RL6P47m6kGYZwMr3_Tkv-121" style="edgeStyle=orthogonalEdgeStyle;rounded=0;orthogonalLoop=1;jettySize=auto;html=1;entryX=1;entryY=0.5;entryDx=0;entryDy=0;entryPerimeter=0;" edge="1" parent="RL6P47m6kGYZwMr3_Tkv-92" source="RL6P47m6kGYZwMr3_Tkv-114" target="RL6P47m6kGYZwMr3_Tkv-99">
          <mxGeometry relative="1" as="geometry" />
        </mxCell>
        <mxCell id="RL6P47m6kGYZwMr3_Tkv-122" value="Test Env Read/Write" style="edgeLabel;html=1;align=center;verticalAlign=middle;resizable=0;points=[];" vertex="1" connectable="0" parent="RL6P47m6kGYZwMr3_Tkv-121">
          <mxGeometry x="-0.0965" y="4" relative="1" as="geometry">
            <mxPoint as="offset" />
          </mxGeometry>
        </mxCell>
        <mxCell id="RL6P47m6kGYZwMr3_Tkv-123" value="" style="group" vertex="1" connectable="0" parent="1">
          <mxGeometry x="-140" y="-190" width="830" height="290" as="geometry" />
        </mxCell>
        <mxCell id="RL6P47m6kGYZwMr3_Tkv-125" value="Internet Access&lt;div&gt;&lt;br&gt;&lt;/div&gt;" style="outlineConnect=0;dashed=0;verticalLabelPosition=bottom;verticalAlign=top;align=center;html=1;shape=mxgraph.aws3.internet_3;fillColor=#D2D3D3;gradientColor=none;" vertex="1" parent="RL6P47m6kGYZwMr3_Tkv-123">
          <mxGeometry x="150.75" y="252.26506024096386" width="59.625" height="37.734939759036145" as="geometry" />
        </mxCell>
        <mxCell id="RL6P47m6kGYZwMr3_Tkv-127" value="" style="endArrow=classic;html=1;rounded=0;fontSize=12;startSize=8;endSize=8;curved=1;" edge="1" parent="RL6P47m6kGYZwMr3_Tkv-123">
          <mxGeometry width="50" height="50" relative="1" as="geometry">
            <mxPoint x="158" y="250" as="sourcePoint" />
            <mxPoint x="157.5" y="69.87951807228916" as="targetPoint" />
          </mxGeometry>
        </mxCell>
        <mxCell id="RL6P47m6kGYZwMr3_Tkv-128" value="" style="endArrow=classic;html=1;rounded=0;fontSize=12;startSize=8;endSize=8;curved=1;" edge="1" parent="RL6P47m6kGYZwMr3_Tkv-123">
          <mxGeometry width="50" height="50" relative="1" as="geometry">
            <mxPoint x="187.5" y="69.87951807228916" as="sourcePoint" />
            <mxPoint x="190" y="250" as="targetPoint" />
          </mxGeometry>
        </mxCell>
        <mxCell id="RL6P47m6kGYZwMr3_Tkv-129" value="1.Request session" style="text;html=1;align=center;verticalAlign=middle;resizable=0;points=[];autosize=1;strokeColor=none;fillColor=none;fontSize=16;" vertex="1" parent="RL6P47m6kGYZwMr3_Tkv-123">
          <mxGeometry x="-9.25" y="97.83132530120483" width="160" height="30" as="geometry" />
        </mxCell>
        <mxCell id="RL6P47m6kGYZwMr3_Tkv-130" value="2. Send back credential toke" style="text;html=1;align=center;verticalAlign=middle;resizable=0;points=[];autosize=1;strokeColor=none;fillColor=none;fontSize=16;" vertex="1" parent="RL6P47m6kGYZwMr3_Tkv-123">
          <mxGeometry x="202.5" y="97.83132530120483" width="230" height="30" as="geometry" />
        </mxCell>
        <mxCell id="RL6P47m6kGYZwMr3_Tkv-131" value="" style="endArrow=classic;html=1;rounded=0;fontSize=12;startSize=8;endSize=8;curved=1;" edge="1" parent="RL6P47m6kGYZwMr3_Tkv-123">
          <mxGeometry width="50" height="50" relative="1" as="geometry">
            <mxPoint x="180" y="290" as="sourcePoint" />
            <mxPoint x="180" y="350" as="targetPoint" />
          </mxGeometry>
        </mxCell>
        <mxCell id="RL6P47m6kGYZwMr3_Tkv-133" value="终端APP" style="rounded=0;whiteSpace=wrap;html=1;" vertex="1" parent="RL6P47m6kGYZwMr3_Tkv-123">
          <mxGeometry x="115" y="10" width="120" height="60" as="geometry" />
        </mxCell>
      </root>
    </mxGraphModel>
  </diagram>
</mxfile>
